PathFileType	4	(X/Y/Z)	KinectSkeleton.trc																																																	
DataRate	CameraRate	NumFrames	NumMarkers	Units	OrigDataRate	OrigDataStartFrame	OrigNumFrames																																													
60	60	11	17	mm	60	310	300																																													
Frame#	Time	Neck			ShoulderMid			R.Shoulder			L.Shoulder			R.Elbow			L.Elbow			R.Wrist			L.Wrist			HipCenter			R.Hip			L.Hip			R.Knee			L.Knee			R.Ankle			L.Ankle			R.Foot			L.Foot		
		X1	Y1	Z1	X2	Y2	Z2	X3	Y3	Z3	X4	Y4	Z4	X5	Y5	Z5	X6	Y6	Z6	X7	Y7	Z7	X8	Y8	Z8	X9	Y9	Z9	X10	Y10	Z10	X11	Y11	Z11	X12	Y12	Z12	X13	Y13	Z13	X14	Y14	Z14	X15	Y15	Z15	X16	Y16	Z16	X17	Y17	Z17
																																																				
310	15.46	-1838.536	1502.248	644.175	-1838.536	1502.248	644.175	-1947.055	1478.582	795.368	-1762.039	1408.087	486.379	-2161.151	1289.682	902.909	-1707.998	1118.623	432.056	-2347.765	1137.264	984.846	-1633.959	879.154	413.812	-1976.586	936.78	665.015	-2001.563	943.027	750.307	-1948.887	929.854	570.429	-2076.4	517.458	717.784	-1939.963	498.46	525.806	-2201.452	120.601	669.13	-1965.424	87.12	480.892	-2060.826	3.447	706.28	-1778.331	12.377	505.712
311	15.508	-1785.417	1505.993	625.278	-1785.417	1505.993	625.278	-1896.537	1475.986	774.808	-1696.216	1407.163	477.182	-2111.419	1281.76	869.977	-1687.311	1113.749	419.181	-2288.669	1118.013	950.282	-1634.478	868.236	421.288	-1928.7	942.311	656.809	-1963.419	953.831	737.978	-1890.197	929.535	566.796	-2026.247	525.395	737.574	-1891.168	496.705	543.003	-2173.792	136.228	692.456	-1926.708	84.694	518.312	-2046.971	14.442	755.042	-1737.503	21.041	482.279
312	15.553	-1768.002	1510.471	602.006	-1768.002	1510.471	602.006	-1867.703	1474.69	761.666	-1695.172	1403.329	446.071	-2102.001	1307.757	872.607	-1685.746	1102.444	415.227	-2289.257	1161.248	970.691	-1623.463	857.465	439.981	-1924.066	943.602	639.87	-1951.196	955.318	724.92	-1893.98	930.61	545.553	-2036.726	525.923	716.332	-1804.42	501.696	531.591	-2229.896	152.185	668.924	-1767.335	84.712	514.904	-2094.638	34.584	728.083	-1562.266	79.19	514.009
313	15.599	-1750.146	1518.344	590.774	-1750.146	1518.344	590.774	-1846.755	1464.089	749.462	-1683.528	1399.451	438.397	-2080	1304.998	871.662	-1668.386	1100.303	400.385	-2267.217	1164.85	977.322	-1601.692	856.338	416.264	-1904.405	953.153	628.432	-1927.29	963.339	714.707	-1879.027	941.857	532.757	-1927.363	526.594	727.689	-1804.054	510.954	527.503	-2160.26	174.809	706.489	-1766.757	94.618	522.987	-2035.739	39.391	746.765	-1564.013	70.56	508.38
314	15.645	-1715.124	1528.247	562.744	-1715.124	1528.247	562.744	-1814.022	1476.442	723.316	-1648.111	1400.681	414.671	-2038.582	1299.068	843.464	-1652.312	1097.117	389.936	-2211.789	1139.348	950.757	-1604.826	847.089	414.205	-1873.569	960.163	614.29	-1897.047	972.26	700.986	-1847.533	946.747	518.147	-1954.346	536.836	738.701	-1788.586	509.433	517.209	-2230.703	217.207	683.275	-1766.784	88.279	516.686	-2140.725	94.781	797.34	-1561.445	66.708	513.408
315	15.693	-1696.648	1527.816	553.392	-1696.648	1527.816	553.392	-1790.995	1476.942	716.58	-1634.665	1399.228	404.439	-2010.021	1294.623	838.184	-1652.221	1096.353	383.788	-2152.305	1113.656	955.674	-1608.257	846.936	415.356	-1852.314	959.988	607.121	-1876.61	972.128	693.426	-1825.37	946.525	511.413	-1982.586	549.873	757.58	-1768.8	509.682	517.074	-2252.137	226.283	697.344	-1748.949	89.207	524.462	-2191.207	85.834	809.302	-1547.863	47.876	505.676
316	15.739	-1668.932	1524.038	536.685	-1668.932	1524.038	536.685	-1731.104	1491.886	711.829	-1613.137	1396.208	390.502	-1918.807	1273.778	810.351	-1642.888	1099.408	379.033	-1999.102	1051.242	902.002	-1618.577	852.003	410.171	-1810.848	964.132	595.134	-1834.532	975.208	680.016	-1784.584	951.849	501.002	-1921.045	557.847	750.251	-1745.621	521.23	508.625	-2176.114	228.789	717.438	-1744.077	108.144	521.334	-2100.813	75.253	791.073	-1552.235	44.686	510.301
317	15.783	-1660.628	1526.266	529.932	-1660.628	1526.266	529.932	-1725.064	1498.518	705.229	-1607.298	1397.127	383.52	-1930.79	1296.028	802.913	-1642.241	1100.306	372.239	-2035.254	1083.764	895.915	-1622.797	851.888	402.622	-1806.921	966.779	592.088	-1830.24	978.383	677.18	-1781.061	953.911	497.724	-1910.705	559.576	751.026	-1744.555	522.262	506.553	-2145.798	215.804	710.5	-1746.594	108.429	520.775	-2064.199	78.45	806.806	-1554.578	44.425	508.798
318	15.829	-1652.424	1530.387	518.036	-1652.424	1530.387	518.036	-1715.558	1501.198	692.688	-1595.116	1404.159	371.335	-1907.796	1294.616	804.937	-1637.201	1109.225	362.305	-2038.498	1102.292	905.459	-1623.85	861.423	393.879	-1783.245	969.336	584.033	-1804.452	981.291	669.31	-1759.726	956.079	489.464	-1842.876	560.801	757.387	-1728.01	525.685	503.679	-2076.353	215.551	743.89	-1745.155	113.918	524.752	-1984.342	83.499	836.935	-1556.812	42.72	507.829
319	15.874	-1635.485	1532.893	511.711	-1635.485	1532.893	511.711	-1699.469	1499.327	686.198	-1582.796	1411.547	358.261	-1897.073	1290.394	787.333	-1636.481	1117.309	351.085	-1977.999	1071.74	888.833	-1624.845	868.857	385.589	-1756.231	966.998	576.544	-1772.648	978.365	663.294	-1738.024	954.392	480.342	-1773.032	553.341	745.793	-1726.345	521.44	496.819	-2000.38	202.244	730.012	-1747.536	108.197	515.723	-1898.411	64.212	803.306	-1555.488	43.273	509.439
320	15.923	-1630.742	1536.627	507.849	-1630.742	1536.627	507.849	-1688.55	1492.812	682.77	-1574.263	1423.711	350.489	-1885.963	1285.266	786.27	-1629.606	1130.289	336.786	-1946.041	1062.675	892.981	-1630.381	880.25	357.265	-1739.74	968.555	571.046	-1748.405	978.899	658.954	-1730.13	957.084	473.56	-1732.243	553.385	735.028	-1722.405	524.717	496.21	-1937.278	188.924	739.028	-1748.417	112.485	521.768	-1814.677	62.112	799.416	-1557.497	45.507	510.55
